# xmcd CD database file
#
# Track frame offsets:
#	150
#	37250
#	72105
#	98207
#	123510
#	146035
#	178125
#	223775
#	252285
#	284360
#
# Disc length: 4357 seconds
#
# Revision: 1
# Processed by: cddbd v1.5.2PL0 Copyright (c) Steve Scherf et al.
# Submitted via: CDex 1.51
#
DISCID=a211030a
DTITLE=Lunaris - Walkt To The Moon
DYEAR=1997
DGENRE=New Age
TTITLE0=In the beginning
TTITLE1=Is this the future?
TTITLE2=Underwater sunlight
TTITLE3=Universe
TTITLE4=Walk to the moon (Solar Edit)
TTITLE5=Transparent atmosphere
TTITLE6=Endless time
TTITLE7=Moonlight dance
TTITLE8=Touch my soul
TTITLE9=Walk to the moon (Funk Edition)
EXTD=YEAR: 1997
EXTT0=
EXTT1=
EXTT2=
EXTT3=
EXTT4=
EXTT5=
EXTT6=
EXTT7=
EXTT8=
EXTT9=
PLAYORDER=
